<svg xmlns="http://www.w3.org/2000/svg" version="1.1" xmlns:xlink="http://www.w3.org/1999/xlink" xmlns:svgjs="http://svgjs.dev/svgjs" width="2000" height="1500" viewBox="0 0 2000 1500"><rect width="2000" height="1500" fill="#ffffff"></rect><g transform="matrix(0.75,0,0,0.75,249.090909090909,450.90044810950826)"><svg viewBox="0 0 396 158" data-background-color="#ffffff" preserveAspectRatio="xMidYMid meet" height="797" width="2000" xmlns="http://www.w3.org/2000/svg" xmlns:xlink="http://www.w3.org/1999/xlink"><g id="tight-bounds" transform="matrix(1,0,0,1,0.2400000000000091,0.05935457749509965)"><svg viewBox="0 0 395.52 157.8812908450098" height="157.8812908450098" width="395.52"><g><svg viewBox="0 0 782.046578156996 312.1726417383429" height="157.8812908450098" width="395.52"><g transform="matrix(1,0,0,1,386.52657815699604,57.03561737327159)"><svg viewBox="0 0 395.52 198.10140699179973" height="198.10140699179973" width="395.52"><g id="textblocktransform"><svg viewBox="0 0 395.52 198.10140699179973" height="198.10140699179973" width="395.52" id="textblock"><g><svg viewBox="0 0 395.52 198.10140699179973" height="198.10140699179973" width="395.52"><g transform="matrix(1,0,0,1,0,0)"><svg width="395.52" viewBox="-1.49 -45.36 113.69 56.66" height="198.10140699179973" data-palette-color="#080228"><g class="wordmark-text-0" data-fill-palette-color="primary" id="text-0"><path d="M7.96-16.55L7.96-18.7 12.4-18.7 12.4-32.59Q12.4-33.13 12.28-33.45 12.16-33.76 11.94-33.95 11.72-34.13 11.41-34.19 11.11-34.25 10.74-34.25L10.74-34.25Q10.21-34.25 9.41-34.08 8.62-33.91 7.74-33.57 6.86-33.23 5.97-32.73 5.08-32.23 4.38-31.59 3.69-30.96 3.25-30.18 2.81-29.39 2.81-28.49L2.81-28.49Q2.81-27.71 3.02-27.25 3.22-26.78 3.49-26.55 3.76-26.32 4.04-26.26 4.32-26.2 4.44-26.2L4.44-26.2Q5.05-26.2 5.44-26.4 5.83-26.61 6.15-26.84 6.47-27.08 6.75-27.28 7.03-27.49 7.4-27.49L7.4-27.49Q7.69-27.49 8.02-27.36 8.35-27.22 8.63-26.93 8.91-26.64 9.11-26.16 9.3-25.68 9.3-25L9.3-25Q9.3-24.02 8.92-23.32 8.54-22.61 7.95-22.13 7.35-21.66 6.58-21.42 5.81-21.19 5.05-21.19L5.05-21.19Q3.88-21.19 2.94-21.59 2-22 1.34-22.71 0.68-23.41 0.34-24.37 0-25.32 0-26.39L0-26.39Q0-28.08 0.61-29.48 1.22-30.88 2.28-32.01 3.34-33.13 4.77-33.97 6.2-34.81 7.86-35.38 9.52-35.94 11.33-36.22 13.13-36.5 14.94-36.5L14.94-36.5Q16.94-36.5 18.05-36.12 19.17-35.74 19.69-35.21 20.21-34.67 20.31-34.08 20.41-33.5 20.41-33.11L20.41-33.11 20.41-18.7 29.39-18.7 29.39-30.44Q29.39-34.47 30.44-37.3 31.49-40.14 33.15-41.93 34.81-43.73 36.87-44.54 38.92-45.36 40.94-45.36L40.94-45.36Q42.33-45.36 43.59-45.15 44.85-44.95 45.79-44.53 46.73-44.12 47.29-43.49 47.85-42.87 47.85-42.04L47.85-42.04Q47.85-41.67 47.74-41.35 47.63-41.02 47.44-40.75 47.24-40.48 46.98-40.32 46.73-40.16 46.46-40.16L46.46-40.16Q46.02-40.16 45.68-40.43 45.34-40.7 45.03-41.1 44.73-41.5 44.43-41.98 44.14-42.46 43.77-42.86 43.41-43.26 42.94-43.53 42.48-43.8 41.85-43.8L41.85-43.8Q40.36-43.8 39.48-42.98 38.6-42.16 38.13-40.59 37.67-39.01 37.54-36.67 37.4-34.33 37.4-31.3L37.4-31.3 37.4-18.7 42.31-18.7 42.31-16.55 37.4-16.55 37.4-1.71Q37.4-1 37.71-0.57 38.01-0.15 38.65-0.15L38.65-0.15Q39.33-0.15 39.92-0.39 40.5-0.63 40.94-0.85L40.94-0.85 41.36 0.05Q40.82 0.42 40.1 0.82 39.38 1.22 38.51 1.57 37.65 1.93 36.66 2.16 35.67 2.39 34.59 2.39L34.59 2.39Q32.93 2.39 31.91 1.95 30.88 1.51 30.32 0.79 29.76 0.07 29.58-0.83 29.39-1.73 29.39-2.66L29.39-2.66 29.39-16.55 20.41-16.55 20.41-4.39Q20.41-1.07 19.2 1.39 17.99 3.86 15.89 5.51 13.79 7.15 10.95 7.97 8.11 8.79 4.86 8.79L4.86 8.79Q3.61 8.79 2.47 8.58 1.32 8.37 0.44 8.01-0.44 7.64-0.96 7.14-1.49 6.64-1.49 6.05L-1.49 6.05Q-1.49 5.62-1.37 5.16-1.25 4.71-1 4.35-0.76 3.98-0.4 3.74-0.05 3.49 0.39 3.49L0.39 3.49Q0.66 3.49 0.87 3.76 1.07 4.03 1.29 4.43 1.51 4.83 1.79 5.3 2.08 5.76 2.53 6.16 2.98 6.57 3.61 6.84 4.25 7.1 5.2 7.1L5.2 7.1Q7.08 7.1 8.44 6.42 9.79 5.74 10.67 4.49 11.55 3.25 11.98 1.53 12.4-0.2 12.4-2.25L12.4-2.25 12.4-16.55 7.96-16.55ZM58.44-36.3L58.44-36.3Q57.76-36.3 57.15-36.01 56.54-35.72 56.09-35.07 55.64-34.42 55.37-33.42 55.1-32.42 55.1-31.01L55.1-31.01 55.1-25 60.45-25 60.45-23.24 55.1-23.24 55.1-4Q55.1-0.68 54.23 2.12 53.37 4.93 51.61 6.97 49.85 9.01 47.21 10.16 44.58 11.3 41.06 11.3L41.06 11.3Q39.82 11.3 38.67 11.1 37.52 10.89 36.64 10.52 35.76 10.16 35.24 9.66 34.71 9.16 34.71 8.54L34.71 8.54Q34.71 8.11 34.84 7.65 34.96 7.2 35.2 6.84 35.45 6.47 35.8 6.24 36.15 6.01 36.62 6.01L36.62 6.01Q36.89 6.01 37.09 6.27 37.3 6.54 37.52 6.93 37.74 7.32 38.02 7.8 38.3 8.28 38.74 8.67 39.18 9.06 39.83 9.33 40.48 9.59 41.4 9.59L41.4 9.59Q42.65 9.59 43.6 9.09 44.55 8.59 45.24 7.71 45.92 6.84 46.38 5.64 46.85 4.44 47.12 3.08 47.39 1.71 47.5 0.22 47.6-1.27 47.6-2.76L47.6-2.76 47.6-23.24 43.11-23.24 43.11-25 47.6-25 47.6-27.86Q47.6-30 48.13-31.6 48.65-33.2 49.52-34.33 50.39-35.45 51.49-36.16 52.59-36.87 53.72-37.28 54.86-37.7 55.93-37.84 57-37.99 57.81-37.99L57.81-37.99Q59.54-37.99 60.89-37.73 62.23-37.48 63.13-37.05 64.04-36.62 64.5-36.06 64.96-35.5 64.96-34.91L64.96-34.91Q64.96-34.47 64.83-34.02 64.69-33.57 64.45-33.19 64.21-32.81 63.85-32.58 63.5-32.35 63.06-32.35L63.06-32.35Q62.79-32.35 62.57-32.64 62.35-32.93 62.11-33.37 61.86-33.81 61.57-34.33 61.28-34.84 60.85-35.28 60.42-35.72 59.84-36.01 59.25-36.3 58.44-36.3ZM70.21-33.96L70.21-2.15Q70.21-1.83 70.1-1.39 69.99-0.95 69.59-0.56 69.18-0.17 68.42 0.11 67.65 0.39 66.35 0.39L66.35 0.39Q65.06 0.39 64.33 0.09 63.59-0.22 63.24-0.63 62.89-1.05 62.8-1.49 62.71-1.93 62.71-2.2L62.71-2.2 62.71-33.69Q62.71-34.4 62.39-34.92 62.06-35.45 61.27-35.45L61.27-35.45Q60.86-35.45 60.55-35.31 60.25-35.18 59.91-34.91L59.91-34.91 59.42-35.5Q59.98-35.96 60.66-36.41 61.35-36.87 62.17-37.21 62.98-37.55 63.91-37.77 64.84-37.99 65.86-37.99L65.86-37.99Q67.45-37.99 68.33-37.56 69.21-37.13 69.62-36.51 70.04-35.89 70.12-35.19 70.21-34.5 70.21-33.96L70.21-33.96ZM84.15-21.29L84.15-2.2Q84.15-1.88 84.04-1.43 83.93-0.98 83.53-0.57 83.12-0.17 82.37 0.11 81.61 0.39 80.31 0.39L80.31 0.39Q79.02 0.39 78.29 0.09 77.56-0.22 77.19-0.63 76.82-1.05 76.74-1.49 76.65-1.93 76.65-2.2L76.65-2.2 76.65-21.04Q76.65-21.75 76.32-22.28 75.99-22.8 75.21-22.8L75.21-22.8Q74.8-22.8 74.5-22.66 74.21-22.51 73.87-22.24L73.87-22.24 73.36-22.85Q73.92-23.32 74.61-23.77 75.31-24.22 76.12-24.56 76.92-24.9 77.85-25.12 78.78-25.34 79.8-25.34L79.8-25.34Q81.39-25.34 82.27-24.91 83.15-24.49 83.56-23.86 83.98-23.24 84.06-22.53 84.15-21.83 84.15-21.29L84.15-21.29ZM75.9-30.91L75.9-30.91Q75.9-31.59 76.2-32.21 76.51-32.84 77.06-33.3 77.6-33.76 78.33-34.03 79.05-34.3 79.9-34.3L79.9-34.3Q80.73-34.3 81.45-34.03 82.17-33.76 82.71-33.3 83.24-32.84 83.55-32.21 83.85-31.59 83.85-30.91L83.85-30.91Q83.85-30.2 83.55-29.59 83.24-28.98 82.71-28.53 82.17-28.08 81.45-27.81 80.73-27.54 79.9-27.54L79.9-27.54Q79.05-27.54 78.33-27.81 77.6-28.08 77.06-28.53 76.51-28.98 76.2-29.59 75.9-30.2 75.9-30.91ZM97.99-21.66L101.19-16.21 103.9-20.24Q104.24-20.78 104.47-21.33 104.7-21.88 104.86-22.4 105.02-22.92 105.13-23.38 105.24-23.83 105.34-24.15L105.34-24.15Q105.53-24.78 106-25.06 106.46-25.34 107.44-25.34L107.44-25.34Q108-25.34 108.43-25.15 108.85-24.95 108.85-24.51L108.85-24.51Q108.85-23.8 108.36-22.77 107.88-21.73 107.05-20.56L107.05-20.56 102.5-14.04 108.85-3.44Q109.1-3 109.3-2.73 109.51-2.47 109.71-2.32 109.9-2.17 110.1-2.11 110.29-2.05 110.54-2.05L110.54-2.05Q110.81-2.05 111.07-2.19 111.34-2.32 111.68-2.59L111.68-2.59 112.2-2Q111.64-1.54 111.03-1.09 110.41-0.63 109.67-0.29 108.93 0.05 108.03 0.27 107.14 0.49 106.04 0.49L106.04 0.49Q104.8 0.49 103.9 0.06 102.99-0.37 102.32-1 101.65-1.64 101.17-2.37 100.7-3.1 100.36-3.71L100.36-3.71 96.79-9.64 93.5-4.71Q93.15-4.17 92.92-3.63 92.69-3.08 92.53-2.55 92.37-2.03 92.26-1.57 92.15-1.12 92.06-0.81L92.06-0.81Q91.86-0.17 91.4 0.11 90.93 0.39 89.96 0.39L89.96 0.39Q89.39 0.39 88.97 0.2 88.54 0 88.54-0.44L88.54-0.44Q88.54-1.15 88.98-2.09 89.42-3.03 90.35-4.39L90.35-4.39 95.55-11.79 89.69-21.66Q89.39-22.14 89.14-22.47 88.88-22.8 88.39-22.8L88.39-22.8Q87.93-22.8 87.25-22.24L87.25-22.24 86.76-22.85Q87.32-23.32 87.98-23.77 88.64-24.22 89.41-24.56 90.18-24.9 91.08-25.12 91.98-25.34 93.01-25.34L93.01-25.34Q94.16-25.34 94.95-24.99 95.74-24.63 96.29-24.1 96.84-23.56 97.23-22.9 97.62-22.24 97.99-21.66L97.99-21.66Z" fill="#080228" data-fill-palette-color="primary"></path></g></svg></g></svg></g></svg></g></svg></g><g><svg viewBox="0 0 339.7595903999999 312.1726417383429" height="312.1726417383429" width="339.7595903999999"><g><svg xmlns:x="http://ns.adobe.com/Extensibility/1.0/" xmlns:i="http://ns.adobe.com/AdobeIllustrator/10.0/" xmlns:graph="http://ns.adobe.com/Graphs/1.0/" xmlns="http://www.w3.org/2000/svg" xmlns:xlink="http://www.w3.org/1999/xlink" xmlns:a="http://ns.adobe.com/AdobeSVGViewerExtensions/3.0/" version="1.0" x="0" y="0" viewBox="0.6479999999999997 5.747 98.50299999999999 90.505" enable-background="new 0 0 100 100" xml:space="preserve" height="312.1726417383429" width="339.7595903999999" class="icon-icon-0" data-fill-palette-color="accent" id="icon-0"><g fill="#660522" data-fill-palette-color="accent"><path d="M29.115 93.079h1.631 1.503c2.434 0 4.405-1.975 4.405-4.405l-0.006-6.932c0-1.753 1.421-3.173 3.174-3.173h3.066l17.872 0.003c8.327-0.048 15.063-6.812 15.063-15.149 0-8.409-6.786-15.107-15.15-15.149l-29.928 0.001h-1.631H14.863c-6.098 0-11.04 4.943-11.04 11.041v22.722c0 6.099 4.942 11.042 11.04 11.042H29.115L29.115 93.079zM0.648 59.315c0-7.851 6.364-14.216 14.215-14.216l63.292 0.001v51.152H14.863c-7.851 0-14.215-6.364-14.215-14.216V59.315L0.648 59.315zM48.479 63.329c0 6.732 5.457 12.19 12.19 12.19s12.191-5.458 12.191-12.19-5.458-12.191-12.191-12.191S48.479 56.597 48.479 63.329L48.479 63.329zM6.853 68.007c0 4.247 3.441 7.688 7.688 7.688 4.246 0 7.688-3.441 7.688-7.688 0-4.246-3.441-7.688-7.688-7.688C10.294 60.318 6.853 63.761 6.853 68.007L6.853 68.007zM14.863 49.507h15.883l29.925-0.001c7.691 0.038 13.922 6.192 13.922 13.917 0 7.659-6.186 13.875-13.836 13.92l-17.868-0.005h-3.066c-2.434 0-4.406 1.972-4.406 4.404l0.007 6.932c0 1.753-1.422 3.172-3.174 3.172h-1.503H14.863c-5.417 0-9.808-4.391-9.808-9.809V59.315C5.056 53.898 9.446 49.507 14.863 49.507L14.863 49.507zM51.353 63.329c0-5.146 4.172-9.317 9.316-9.317 5.146 0 9.316 4.172 9.316 9.317 0 5.145-4.171 9.314-9.316 9.314C55.524 72.644 51.353 68.474 51.353 63.329L51.353 63.329zM10.03 68.007c0-2.491 2.019-4.511 4.511-4.511 2.491 0 4.511 2.02 4.511 4.511s-2.02 4.511-4.511 4.511C12.049 72.518 10.03 70.498 10.03 68.007L10.03 68.007zM61.513 5.747h4.673c3.077 8.684 5.351 20.466 6.253 33.693 2.752 1.09 3 3.19 3 3.19v1.193H26.843v-1.101c0 0 0.094-1.25 2.536-1.434 0.446-0.035 1.981-0.149 4.218-0.311l1.502-26.043h26.96L61.513 5.747 61.513 5.747zM87.481 49.909h1.314l2.258 1.982 8.098 0.006v35.674h-8.098l-2.258 1.983h-1.314l-2.51 2.202h-5.577v-44.05h5.577L87.481 49.909 87.481 49.909z" fill="#660522" data-fill-palette-color="accent"></path></g></svg></g></svg></g></svg></g><defs></defs></svg><rect width="395.52" height="157.8812908450098" fill="none" stroke="none" visibility="hidden"></rect></g></svg></g></svg>